<svg xmlns="http://www.w3.org/2000/svg" viewBox="0 0 320 120" width="100%" height="100%">
  <defs>
    <style>
      .blue-text { font-family: 'Arial Black', Impact, Montserrat, sans-serif; font-style: italic; font-weight: 900; fill: #184c8c; }
      .map-dot { fill: #184c8c; }
    </style>
  </defs>

  <!-- Dotted Map of Brazil Silhouette -->
  <g transform="translate(15, 25) scale(0.9)">
    <!-- Grid of pixel dots representing Brazil outline -->
    <rect x="25" y="5" width="4" height="4" class="map-dot"/><rect x="30" y="5" width="4" height="4" class="map-dot"/><rect x="35" y="5" width="4" height="4" class="map-dot"/>
    <rect x="20" y="10" width="4" height="4" class="map-dot"/><rect x="25" y="10" width="4" height="4" class="map-dot"/><rect x="30" y="10" width="4" height="4" class="map-dot"/><rect x="35" y="10" width="4" height="4" class="map-dot"/><rect x="40" y="10" width="4" height="4" class="map-dot"/><rect x="45" y="10" width="4" height="4" class="map-dot"/>
    <rect x="15" y="15" width="4" height="4" class="map-dot"/><rect x="20" y="15" width="4" height="4" class="map-dot"/><rect x="25" y="15" width="4" height="4" class="map-dot"/><rect x="30" y="15" width="4" height="4" class="map-dot"/><rect x="35" y="15" width="4" height="4" class="map-dot"/><rect x="40" y="15" width="4" height="4" class="map-dot"/><rect x="45" y="15" width="4" height="4" class="map-dot"/><rect x="50" y="15" width="4" height="4" class="map-dot"/>
    <rect x="5" y="20" width="4" height="4" class="map-dot"/><rect x="10" y="20" width="4" height="4" class="map-dot"/><rect x="15" y="20" width="4" height="4" class="map-dot"/><rect x="20" y="20" width="4" height="4" class="map-dot"/><rect x="25" y="20" width="4" height="4" class="map-dot"/><rect x="30" y="20" width="4" height="4" class="map-dot"/><rect x="35" y="20" width="4" height="4" class="map-dot"/><rect x="40" y="20" width="4" height="4" class="map-dot"/><rect x="45" y="20" width="4" height="4" class="map-dot"/><rect x="50" y="20" width="4" height="4" class="map-dot"/><rect x="55" y="20" width="4" height="4" class="map-dot"/>
    <rect x="10" y="25" width="4" height="4" class="map-dot"/><rect x="15" y="25" width="4" height="4" class="map-dot"/><rect x="20" y="25" width="4" height="4" class="map-dot"/><rect x="25" y="25" width="4" height="4" class="map-dot"/><rect x="30" y="25" width="4" height="4" class="map-dot"/><rect x="35" y="25" width="4" height="4" class="map-dot"/><rect x="40" y="25" width="4" height="4" class="map-dot"/><rect x="45" y="25" width="4" height="4" class="map-dot"/><rect x="50" y="25" width="4" height="4" class="map-dot"/><rect x="55" y="25" width="4" height="4" class="map-dot"/>
    <rect x="15" y="30" width="4" height="4" class="map-dot"/><rect x="20" y="30" width="4" height="4" class="map-dot"/><rect x="25" y="30" width="4" height="4" class="map-dot"/><rect x="30" y="30" width="4" height="4" class="map-dot"/><rect x="35" y="30" width="4" height="4" class="map-dot"/><rect x="40" y="30" width="4" height="4" class="map-dot"/><rect x="45" y="30" width="4" height="4" class="map-dot"/><rect x="50" y="30" width="4" height="4" class="map-dot"/>
    <rect x="20" y="35" width="4" height="4" class="map-dot"/><rect x="25" y="35" width="4" height="4" class="map-dot"/><rect x="30" y="35" width="4" height="4" class="map-dot"/><rect x="35" y="35" width="4" height="4" class="map-dot"/><rect x="40" y="35" width="4" height="4" class="map-dot"/><rect x="45" y="35" width="4" height="4" class="map-dot"/>
    <rect x="25" y="40" width="4" height="4" class="map-dot"/><rect x="30" y="40" width="4" height="4" class="map-dot"/><rect x="35" y="40" width="4" height="4" class="map-dot"/><rect x="40" y="40" width="4" height="4" class="map-dot"/>
    <rect x="28" y="45" width="4" height="4" class="map-dot"/><rect x="33" y="45" width="4" height="4" class="map-dot"/><rect x="38" y="45" width="4" height="4" class="map-dot"/>
    <rect x="32" y="50" width="4" height="4" class="map-dot"/><rect x="36" y="50" width="4" height="4" class="map-dot"/>
    <rect x="35" y="55" width="4" height="4" class="map-dot"/>
  </g>

  <!-- Typography: ABRACAF -->
  <g transform="translate(85, 68)">
    <!-- Letter A -->
    <text x="0" y="0" font-size="44" class="blue-text" letter-spacing="1">ABRACAF</text>
    <!-- Dynamic Blue Underline Banner -->
    <polygon points="5,8 210,8 202,17 -3,17" fill="#184c8c"/>
  </g>
</svg>
